# Blender v2.79 (sub 0) OBJ File: ''
# www.blender.org
mtllib floor.mtl
o Cube
v 500.000000 -0.220895 -499.999969
v 500.000000 -0.220895 500.000000
v -500.000061 -0.220895 499.999908
v -499.999817 -0.220895 -500.000183
v 500.000244 0.220895 -499.999725
v 499.999664 0.220895 500.000305
v -500.000183 0.220895 499.999817
v -499.999969 0.220895 -500.000000
vn 0.0000 -1.0000 0.0000
vn 0.0000 1.0000 0.0000
vn 1.0000 -0.0006 0.0000
vn -0.0000 -0.0007 1.0000
vn -1.0000 -0.0001 -0.0000
vn 0.0000 0.0006 -1.0000
vn 1.0000 0.0010 0.0000
vn -0.0000 0.0002 1.0000
vn -1.0000 -0.0003 -0.0000
vn 0.0000 0.0004 -1.0000
usemtl Material
s off
f 2//1 4//1 1//1
f 8//2 6//2 5//2
f 5//3 2//3 1//3
f 6//4 3//4 2//4
f 3//5 8//5 4//5
f 1//6 8//6 5//6
f 2//1 3//1 4//1
f 8//2 7//2 6//2
f 5//7 6//7 2//7
f 6//8 7//8 3//8
f 3//9 7//9 8//9
f 1//10 4//10 8//10
